<mxfile host="app.diagrams.net" modified="2022-04-25T08:11:21.087Z" agent="5.0 (Macintosh; Intel Mac OS X 10_15_7) AppleWebKit/537.36 (KHTML, like Gecko) Chrome/100.0.4896.127 Safari/537.36" etag="jeDMyIF1HNqahdrWwMW9" version="17.4.6" type="github">
  <diagram id="C_l9mOGAIvIIOT0jqsDt" name="Page-1">
    <mxGraphModel dx="1426" dy="696" grid="1" gridSize="10" guides="1" tooltips="1" connect="1" arrows="1" fold="1" page="1" pageScale="1" pageWidth="827" pageHeight="1169" math="0" shadow="0">
      <root>
        <mxCell id="0" />
        <mxCell id="1" parent="0" />
        <mxCell id="Qz26ZJ9bTXqWnpHqDz4b-1" value="&lt;font style=&quot;font-size: 32px&quot;&gt;start&lt;/font&gt;" style="ellipse;whiteSpace=wrap;html=1;" vertex="1" parent="1">
          <mxGeometry x="240" y="110" width="120" height="80" as="geometry" />
        </mxCell>
        <mxCell id="Qz26ZJ9bTXqWnpHqDz4b-2" value="&lt;span style=&quot;font-size: 32px&quot;&gt;end&lt;/span&gt;" style="ellipse;whiteSpace=wrap;html=1;" vertex="1" parent="1">
          <mxGeometry x="240" y="250" width="120" height="80" as="geometry" />
        </mxCell>
        <mxCell id="Qz26ZJ9bTXqWnpHqDz4b-3" value="" style="endArrow=classic;html=1;rounded=0;fontSize=32;exitX=0.5;exitY=1;exitDx=0;exitDy=0;entryX=0.5;entryY=0;entryDx=0;entryDy=0;" edge="1" parent="1" source="Qz26ZJ9bTXqWnpHqDz4b-1" target="Qz26ZJ9bTXqWnpHqDz4b-2">
          <mxGeometry width="50" height="50" relative="1" as="geometry">
            <mxPoint x="390" y="370" as="sourcePoint" />
            <mxPoint x="440" y="320" as="targetPoint" />
          </mxGeometry>
        </mxCell>
      </root>
    </mxGraphModel>
  </diagram>
</mxfile>
